<svg xmlns="http://www.w3.org/2000/svg" viewBox="0 0 500 500"><g id="freepik--background-simple--inject-68"><path d="M455.64,187.46c-8.12-27.16-21.6-53-37.18-74.72-12.83-17.9-27.65-34.64-46.54-46.22-46-28.2-108.52-33.23-155.49-4.86-45.53,27.51-52.16,66.39-95.79,82.51S30.54,184,23,275.05,62.79,443.86,190.82,473.26,316,387.91,368.17,370.84C446,345.37,478,262.12,455.64,187.46Z" style="fill:#5289F5"></path><path d="M455.64,187.46c-8.12-27.16-21.6-53-37.18-74.72-12.83-17.9-27.65-34.64-46.54-46.22-46-28.2-108.52-33.23-155.49-4.86-45.53,27.51-52.16,66.39-95.79,82.51S30.54,184,23,275.05,62.79,443.86,190.82,473.26,316,387.91,368.17,370.84C446,345.37,478,262.12,455.64,187.46Z" style="fill:#fff;opacity:0.7000000000000001"></path></g><g id="freepik--Plant--inject-68"><path d="M410.14,317.52c2.18,1,7.5.83,7.51.83s-1.15-3.49-1.25-3.7c-1.17-2.44-4.86-6.48-7.87-6.07a3.59,3.59,0,0,0-2.88,4.5C406.15,315.16,408.28,316.71,410.14,317.52Z" style="fill:#263238"></path><path d="M412,333c2.26.33,7-1.05,7.39-1.16a63.26,63.26,0,0,0,2.88,8c.65,1.51,1.36,3,2.09,4.51-.44-.63-.83-1.2-.89-1.27-1.78-2.05-6.41-5-9.2-3.78a3.59,3.59,0,0,0-1.59,5.1c1,1.88,3.5,2.81,5.5,3.1s6.11-.8,7.19-1.1c.28.57.56,1.15.85,1.72,1.37,2.74,2.76,5.47,4,8.18.45,1,.85,1.92,1.27,2.88-.39-.56-.72-1-.78-1.1-1.77-2.05-6.4-5-9.19-3.78a3.58,3.58,0,0,0-1.59,5.1c1,1.88,3.5,2.81,5.5,3.1s5.71-.7,7-1.05c.39,1,.79,2,1.12,3,.22.68.47,1.31.65,2s.37,1.36.56,2c.31,1.3.64,2.63.91,3.91.2.88.37,1.73.54,2.58-.44-1-1.33-2.82-1.42-3-1.44-2.29-5.58-5.88-8.52-5.13a3.6,3.6,0,0,0-2.35,4.81c.74,2,3,3.3,5,3.89,2.13.65,6.84.06,7.43,0,.29,1.41.55,2.78.77,4.08.8,4.51,1.29,8.29,1.59,10.94.06.47.1.89.15,1.29h-9.14l.62,12.1h21l.62-12.1h-8.51c.06-.13.12-.26.19-.39,1.16-2.44,2.78-5.93,4.53-10.21.56-1.35,1.12-2.8,1.69-4.3.57.12,5.24,1.07,7.42.58,2-.45,4.37-1.57,5.25-3.52a3.59,3.59,0,0,0-2-5c-2.88-1-7.27,2.3-8.88,4.48-.09.13-1,1.64-1.5,2.6.23-.61.45-1.21.68-1.84.46-1.25.88-2.51,1.34-3.87q.3-1,.6-2c.22-.66.36-1.4.54-2.1.39-1.64.71-3.33,1-5,1.1.4,5,1.76,7,1.62s4.55-.88,5.72-2.68a3.59,3.59,0,0,0-1.2-5.21c-2.7-1.39-7.54,1.18-9.46,3.09-.12.12-1.34,1.64-2,2.5.16-1,.33-2.05.46-3.09.37-3,.66-6.07.95-9.12.09-.93.2-1.86.29-2.79.39.14,5,1.86,7.28,1.7,2-.14,4.55-.88,5.72-2.68a3.58,3.58,0,0,0-1.2-5.2c-2.7-1.39-7.54,1.17-9.46,3.08-.14.15-1.9,2.35-2.32,2.93.22-2.05.45-4.09.77-6.1a61.44,61.44,0,0,1,1.75-8c.18.07,5,1.89,7.31,1.72,2-.14,4.56-.88,5.73-2.68a3.59,3.59,0,0,0-1.21-5.2c-2.7-1.39-7.53,1.17-9.45,3.08-.15.15-2,2.52-2.36,3,.05-.15.08-.31.12-.46a47,47,0,0,1,3.18-7.59c.69-1.35,1.42-2.6,2.17-3.8.86.43,4.82,2.35,6.93,2.43s4.62-.37,6-2a3.6,3.6,0,0,0-.63-5.31c-2.53-1.68-7.61.34-9.73,2-.12.09-1.19,1.16-1.95,1.94.34-.54.68-1.1,1-1.6,1.27-1.92,2.55-3.59,3.7-5.06.66-.83,1.27-1.57,1.85-2.26,1.06,0,5.36-.15,7.24-1s3.92-2.46,4.37-4.56a3.59,3.59,0,0,0-3-4.42c-3-.32-6.6,3.81-7.7,6.29-.1.21-1.2,3.73-1.15,3.73h.07c-.57.64-1.18,1.35-1.82,2.13-1.18,1.45-2.5,3.09-3.82,5a63.56,63.56,0,0,0-4,6.3,46.82,46.82,0,0,0-3.38,7.61.54.54,0,0,1,0,.1c0-.89,0-3.38,0-3.57-.35-2.69-2.6-7.68-5.59-8.23a3.59,3.59,0,0,0-4.14,3.38c-.18,2.13,1.37,4.27,2.88,5.62,1.7,1.52,6.43,3,6.81,3.11a61.57,61.57,0,0,0-2,8.24c-.29,1.63-.53,3.27-.75,4.92,0-.77,0-1.45,0-1.55-.35-2.69-2.6-7.68-5.59-8.23a3.6,3.6,0,0,0-4.14,3.38c-.17,2.14,1.37,4.27,2.88,5.62s5.54,2.71,6.6,3c-.07.64-.16,1.27-.24,1.91-.36,3-.71,6.08-1.14,9.05-.16,1-.35,2.08-.53,3.1,0-.68,0-1.25,0-1.34-.35-2.69-2.6-7.68-5.58-8.23a3.6,3.6,0,0,0-4.14,3.38c-.18,2.13,1.37,4.27,2.88,5.62s5.14,2.57,6.41,3c-.22,1.05-.44,2.1-.71,3.1-.19.68-.33,1.35-.56,2s-.43,1.34-.65,2c-.45,1.25-.92,2.55-1.39,3.76-.32.84-.65,1.64-1,2.45.16-1,.44-3.09.44-3.26a14,14,0,0,0-1.87-6.78,4.3,4.3,0,0,0-.05-.8,3.58,3.58,0,0,0-4.39-3c-2.93.78-4.79,5.92-4.93,8.63,0,.16.1,1.9.18,3-.15-.64-.28-1.26-.44-1.91-.31-1.3-.66-2.59-1-4-.2-.66-.4-1.33-.61-2s-.47-1.36-.71-2.05c-.58-1.58-1.24-3.16-1.95-4.74,1.14-.27,5.15-1.29,6.77-2.53s3.31-3.25,3.29-5.39a3.59,3.59,0,0,0-3.88-3.68c-3,.33-5.63,5.14-6.18,7.79,0,.17-.21,2.11-.29,3.19-.43-.95-.86-1.89-1.32-2.83-1.35-2.72-2.8-5.43-4.24-8.13-.44-.83-.86-1.66-1.3-2.49.41-.09,5.21-1.21,7-2.6,1.6-1.23,3.31-3.24,3.29-5.39a3.58,3.58,0,0,0-3.88-3.67c-3,.33-5.63,5.13-6.18,7.79,0,.2-.3,3-.32,3.72-.95-1.83-1.88-3.67-2.73-5.51a62.71,62.71,0,0,1-3-7.65c.19,0,5.2-1.18,7.05-2.6,1.61-1.23,3.31-3.25,3.3-5.39a3.6,3.6,0,0,0-3.88-3.68c-3,.33-5.64,5.14-6.18,7.79-.05.21-.32,3.23-.33,3.78,0-.15-.11-.31-.15-.46a46.43,46.43,0,0,1-1.54-8.08c-.17-1.5-.25-2.95-.29-4.36,1-.12,5.32-.7,7.13-1.8s3.64-2.86,3.86-5a3.58,3.58,0,0,0-3.45-4.08c-3,0-6.16,4.48-7,7.06-.05.14-.35,1.62-.56,2.69,0-.63,0-1.29,0-1.9,0-2.3.15-4.4.3-6.26.09-1.06.19-2,.3-2.9.87-.6,4.38-3.08,5.46-4.85s1.92-4.22,1.13-6.22a3.59,3.59,0,0,0-4.94-2c-2.7,1.4-3.41,6.82-3,9.5,0,.23,1.06,3.77,1.1,3.74l.05,0c-.11.86-.23,1.78-.34,2.78-.18,1.86-.37,4-.43,6.27a63.22,63.22,0,0,0,.18,7.44,46.63,46.63,0,0,0,1.38,8.21l0,.1c-.48-.75-1.88-2.8-2-3-1.77-2-6.4-5-9.2-3.78a3.59,3.59,0,0,0-1.59,5.1C407.5,331.73,410,332.66,412,333Zm30.09,39.77c1.55,1.68,5.53,3.65,6.05,3.9-.55,1.33-1.09,2.62-1.61,3.83-1.83,4.2-3.51,7.63-4.71,10-.24.48-.46.91-.67,1.3h-.2c-.06-.47-.12-1-.2-1.54-.37-2.68-1-6.49-1.85-11-.28-1.43-.61-3-1-4.52A39.12,39.12,0,0,0,442.07,372.72Z" style="fill:#263238"></path><path d="M464,318.69c.05,0,1-3.54,1-3.77.37-2.68-.49-8.09-3.22-9.41a3.59,3.59,0,0,0-4.89,2.16c-.73,2,.2,4.49,1.3,6.19C459.5,315.85,464,318.69,464,318.69Z" style="fill:#263238"></path></g><g id="freepik--Picture--inject-68"><rect x="355" y="91.83" width="104.22" height="138.68" style="fill:none;stroke:#a1a1a1;stroke-linecap:round;stroke-linejoin:round"></rect><rect x="360.79" y="99.53" width="92.64" height="123.27" style="fill:none;stroke:#a1a1a1;stroke-linecap:round;stroke-linejoin:round"></rect><rect x="392.64" y="141.91" width="28.95" height="38.52" style="fill:none;stroke:#a1a1a1;stroke-linecap:round;stroke-linejoin:round"></rect></g><g id="freepik--Door--inject-68"><rect x="59.39" y="49.74" width="180.09" height="353.97" style="fill:none;stroke:#a1a1a1;stroke-linecap:round;stroke-linejoin:round"></rect><rect x="76.73" y="65.86" width="68.37" height="73.19" style="fill:none;stroke:#a1a1a1;stroke-linecap:round;stroke-linejoin:round"></rect><rect x="87.18" y="77.05" width="47.47" height="50.81" style="fill:none;stroke:#a1a1a1;stroke-linecap:round;stroke-linejoin:round"></rect><line x1="87.18" y1="77.05" x2="76.73" y2="65.86" style="fill:none;stroke:#a1a1a1;stroke-linecap:round;stroke-linejoin:round"></line><line x1="134.65" y1="127.86" x2="145.1" y2="139.05" style="fill:none;stroke:#a1a1a1;stroke-linecap:round;stroke-linejoin:round"></line><line x1="134.65" y1="77.05" x2="145.1" y2="65.86" style="fill:none;stroke:#a1a1a1;stroke-linecap:round;stroke-linejoin:round"></line><line x1="87.18" y1="127.86" x2="76.73" y2="139.05" style="fill:none;stroke:#a1a1a1;stroke-linecap:round;stroke-linejoin:round"></line><rect x="158.04" y="65.86" width="68.37" height="73.19" style="fill:none;stroke:#a1a1a1;stroke-linecap:round;stroke-linejoin:round"></rect><rect x="168.5" y="77.05" width="47.47" height="50.81" style="fill:none;stroke:#a1a1a1;stroke-linecap:round;stroke-linejoin:round"></rect><line x1="168.5" y1="77.05" x2="158.04" y2="65.86" style="fill:none;stroke:#a1a1a1;stroke-linecap:round;stroke-linejoin:round"></line><line x1="215.96" y1="127.86" x2="226.42" y2="139.05" style="fill:none;stroke:#a1a1a1;stroke-linecap:round;stroke-linejoin:round"></line><line x1="215.96" y1="77.05" x2="226.42" y2="65.86" style="fill:none;stroke:#a1a1a1;stroke-linecap:round;stroke-linejoin:round"></line><line x1="168.5" y1="127.86" x2="158.04" y2="139.05" style="fill:none;stroke:#a1a1a1;stroke-linecap:round;stroke-linejoin:round"></line><rect x="76.73" y="157.69" width="68.37" height="73.19" style="fill:none;stroke:#a1a1a1;stroke-linecap:round;stroke-linejoin:round"></rect><rect x="87.18" y="168.88" width="47.47" height="50.81" style="fill:none;stroke:#a1a1a1;stroke-linecap:round;stroke-linejoin:round"></rect><line x1="87.18" y1="168.88" x2="76.73" y2="157.69" style="fill:none;stroke:#a1a1a1;stroke-linecap:round;stroke-linejoin:round"></line><line x1="134.65" y1="219.69" x2="145.1" y2="230.88" style="fill:none;stroke:#a1a1a1;stroke-linecap:round;stroke-linejoin:round"></line><line x1="134.65" y1="168.88" x2="145.1" y2="157.69" style="fill:none;stroke:#a1a1a1;stroke-linecap:round;stroke-linejoin:round"></line><line x1="87.18" y1="219.69" x2="76.73" y2="230.88" style="fill:none;stroke:#a1a1a1;stroke-linecap:round;stroke-linejoin:round"></line><rect x="158.04" y="157.69" width="68.37" height="73.19" style="fill:none;stroke:#a1a1a1;stroke-linecap:round;stroke-linejoin:round"></rect><rect x="168.5" y="168.88" width="47.47" height="50.81" style="fill:none;stroke:#a1a1a1;stroke-linecap:round;stroke-linejoin:round"></rect><line x1="168.5" y1="168.88" x2="158.04" y2="157.69" style="fill:none;stroke:#a1a1a1;stroke-linecap:round;stroke-linejoin:round"></line><line x1="215.96" y1="219.69" x2="226.42" y2="230.88" style="fill:none;stroke:#a1a1a1;stroke-linecap:round;stroke-linejoin:round"></line><line x1="215.96" y1="168.88" x2="226.42" y2="157.69" style="fill:none;stroke:#a1a1a1;stroke-linecap:round;stroke-linejoin:round"></line><line x1="168.5" y1="219.69" x2="158.04" y2="230.88" style="fill:none;stroke:#a1a1a1;stroke-linecap:round;stroke-linejoin:round"></line><rect x="76.73" y="249.52" width="68.37" height="73.19" style="fill:none;stroke:#a1a1a1;stroke-linecap:round;stroke-linejoin:round"></rect><rect x="87.18" y="260.71" width="47.47" height="50.81" style="fill:none;stroke:#a1a1a1;stroke-linecap:round;stroke-linejoin:round"></rect><line x1="87.18" y1="260.71" x2="76.73" y2="249.52" style="fill:none;stroke:#a1a1a1;stroke-linecap:round;stroke-linejoin:round"></line><line x1="134.65" y1="311.52" x2="145.1" y2="322.71" style="fill:none;stroke:#a1a1a1;stroke-linecap:round;stroke-linejoin:round"></line><line x1="134.65" y1="260.71" x2="145.1" y2="249.52" style="fill:none;stroke:#a1a1a1;stroke-linecap:round;stroke-linejoin:round"></line><line x1="87.18" y1="311.52" x2="76.73" y2="322.71" style="fill:none;stroke:#a1a1a1;stroke-linecap:round;stroke-linejoin:round"></line><rect x="158.04" y="249.52" width="68.37" height="73.19" style="fill:none;stroke:#a1a1a1;stroke-linecap:round;stroke-linejoin:round"></rect><rect x="168.5" y="260.71" width="47.47" height="50.81" style="fill:none;stroke:#a1a1a1;stroke-linecap:round;stroke-linejoin:round"></rect><line x1="168.5" y1="260.71" x2="158.04" y2="249.52" style="fill:none;stroke:#a1a1a1;stroke-linecap:round;stroke-linejoin:round"></line><line x1="215.96" y1="311.52" x2="226.42" y2="322.71" style="fill:none;stroke:#a1a1a1;stroke-linecap:round;stroke-linejoin:round"></line><line x1="215.96" y1="260.71" x2="226.42" y2="249.52" style="fill:none;stroke:#a1a1a1;stroke-linecap:round;stroke-linejoin:round"></line><line x1="168.5" y1="311.52" x2="158.04" y2="322.71" style="fill:none;stroke:#a1a1a1;stroke-linecap:round;stroke-linejoin:round"></line><rect x="76.73" y="341.35" width="68.37" height="62.36" style="fill:none;stroke:#a1a1a1;stroke-linecap:round;stroke-linejoin:round"></rect><rect x="87.18" y="352.54" width="47.47" height="50.81" style="fill:none;stroke:#a1a1a1;stroke-linecap:round;stroke-linejoin:round"></rect><line x1="87.18" y1="352.54" x2="76.73" y2="341.35" style="fill:none;stroke:#a1a1a1;stroke-linecap:round;stroke-linejoin:round"></line><line x1="134.65" y1="352.54" x2="145.1" y2="341.35" style="fill:none;stroke:#a1a1a1;stroke-linecap:round;stroke-linejoin:round"></line><rect x="158.04" y="341.35" width="68.37" height="62.36" style="fill:none;stroke:#a1a1a1;stroke-linecap:round;stroke-linejoin:round"></rect><rect x="168.5" y="352.54" width="47.47" height="50.81" style="fill:none;stroke:#a1a1a1;stroke-linecap:round;stroke-linejoin:round"></rect><line x1="168.5" y1="352.54" x2="158.04" y2="341.35" style="fill:none;stroke:#a1a1a1;stroke-linecap:round;stroke-linejoin:round"></line><line x1="215.96" y1="352.54" x2="226.42" y2="341.35" style="fill:none;stroke:#a1a1a1;stroke-linecap:round;stroke-linejoin:round"></line><path d="M74.36,239.68a5.61,5.61,0,1,0-5.61,5.61A5.61,5.61,0,0,0,74.36,239.68Z" style="fill:none;stroke:#a1a1a1;stroke-linecap:round;stroke-linejoin:round"></path></g><g id="freepik--Character--inject-68"><path d="M431.57,403.71c-3.25-21.85-17.55-118.4-17.3-121.29.27-3.27-38.09-15.24-38.09-15.24l-21.49-.82v-.26l-3.4.13-3.4-.13v.26l-21.49.82s-38.35,12-38.08,15.24c.24,2.89-14.06,99.44-17.3,121.29Z" style="fill:#5289F5;stroke:#263238;stroke-linecap:round;stroke-linejoin:round"></path><path d="M413.61,281.47l.66.95C414.29,282.15,414.05,281.83,413.61,281.47Z" style="fill:#263238;stroke:#263238;stroke-linecap:round;stroke-linejoin:round"></path><path d="M376.43,289l31.28-10.62c-10.89-4.72-31.53-11.16-31.53-11.16l-9.72-.37Z" style="fill:#263238;stroke:#263238;stroke-linecap:round;stroke-linejoin:round"></path><path d="M414.6,285.92,426,403.71h5.61C428.65,384,416.77,303.82,414.6,285.92Z" style="fill:#263238;stroke:#263238;stroke-linecap:round;stroke-linejoin:round"></path><polygon points="430.06 403.71 411.26 365.15 401.31 365.38 400.03 403.71 430.06 403.71" style="fill:#5289F5;stroke:#263238;stroke-linecap:round;stroke-linejoin:round"></polygon><line x1="396.33" y1="320.21" x2="396.33" y2="315.59" style="fill:none;stroke:#263238;stroke-linecap:round;stroke-linejoin:round"></line><line x1="396.33" y1="362.54" x2="396.33" y2="325.5" style="fill:none;stroke:#263238;stroke-linecap:round;stroke-linejoin:round"></line><polygon points="302.53 403.71 301.25 365.38 291.3 365.15 272.5 403.71 302.53 403.71" style="fill:#5289F5;stroke:#263238;stroke-linecap:round;stroke-linejoin:round"></polygon><line x1="306.23" y1="329.9" x2="306.23" y2="315.59" style="fill:none;stroke:#263238;stroke-linecap:round;stroke-linejoin:round"></line><line x1="306.23" y1="362.54" x2="306.23" y2="333.42" style="fill:none;stroke:#263238;stroke-linecap:round;stroke-linejoin:round"></line><polygon points="340.55 291.67 351.43 305.81 339.46 384.43 353.6 402.11 365.03 383.07 353.6 305 364.76 291.12 354.15 278.61 340.55 291.67" style="fill:#263238;stroke:#263238;stroke-linecap:round;stroke-linejoin:round"></polygon><path d="M353.38,287s-10.66,6-13.65,9.8-10.06,11.15-10.06,12-6.8-25.29-6.8-33.45-.82-7.35,1.36-9.8,9-9.25,10.88-10.06,34.54-.27,36.45.54,6.8,10.61,8.16,13.88a28.71,28.71,0,0,1,1.63,4.62s-3,17.68-3.54,22-4.62,13.6-4.62,13.6-12.51-14.68-13.33-16.59S353.38,287,353.38,287Z" style="fill:#5289F5;stroke:#263238;stroke-linecap:round;stroke-linejoin:round"></path><polygon points="333.47 244.88 333.76 265.28 353.38 287.04 370.44 266.91 371.01 245.69 333.47 244.88" style="fill:#fff;stroke:#263238;stroke-linecap:round;stroke-linejoin:round"></polygon><polygon points="344.07 253.06 345.21 254.97 368.74 268.93 370.44 266.91 371.01 245.69 341.69 245.06 344.07 253.06" style="fill:#263238"></polygon><path d="M328.93,214.37s-3.1-9.94-7.84-7.43-2.76,13.22.09,16.34a18.2,18.2,0,0,0,7.43,4.42s-1.45,14.09,4.86,19.27,9,11.57,12.82,11.74,13.07,0,14.72-.43,10.68-7.43,12.59-13.6a53.06,53.06,0,0,0,2.16-11.89s9.95-9.36,10.46-14.78-4-7.26-6.24-6.54l-2.21.72,1.28-16.56s13.09-.5,13.15-1.86-5.34-8.41-5.34-8.41,16.06.17,17.17-6.58-12.73-13.64-16.87-12.46-10.72,2.24-10.72,2.24,9.54-6.38,5.33-9.56-12.4-2.73-17.18.59a38.49,38.49,0,0,0-6.79,5.69,17.3,17.3,0,0,0-10.68-4.83c-6.78-.58-10.72,2.24-8.85,3.14a6.08,6.08,0,0,1,2.62,2.3s-13.74,2.93-15.47,11S328.93,214.37,328.93,214.37Z" style="fill:#fff;stroke:#263238;stroke-linecap:round;stroke-linejoin:round"></path><path d="M380,211.47l-1.73.56-1.45,3.65-1,17.11s9.95-9.36,10.46-14.78S382.19,210.75,380,211.47Z" style="fill:#263238"></path><line x1="338.59" y1="212.9" x2="345.82" y2="213.55" style="fill:none;stroke:#263238;stroke-linecap:round;stroke-linejoin:round"></line><line x1="363.29" y1="214.33" x2="370.23" y2="213.98" style="fill:none;stroke:#263238;stroke-linecap:round;stroke-linejoin:round"></line><path d="M325.59,208.11l3.34,6.26A19.65,19.65,0,0,0,325.59,208.11Z" style="fill:none;stroke:#263238;stroke-linecap:round;stroke-linejoin:round"></path><path d="M404,178.78c1.12-6.76-12.57-12.46-16.87-12.46a26.34,26.34,0,0,0-10.72,2.24s9.54-6.38,5.33-9.56-12.4-2.73-17.18.59a38.49,38.49,0,0,0-6.79,5.69,17.3,17.3,0,0,0-10.68-4.83c-6.78-.58-10.72,2.24-8.85,3.14a6.08,6.08,0,0,1,2.62,2.3s-13.74,2.93-15.47,11,3.51,37.46,3.51,37.46l2.22-1a18,18,0,0,1,1.74-8.37c2.12-4.8,4.65-6.6,4.8-10.13s-3.33-10.77,1.1-12.47,31,0,33.74.68,4.47,3.47,3.46,7.78-1.88,5.63-.89,7.86,2,9.62,1.92,11.79l-.09,2.17-.13,3,1.34-3.61-.37.12,1.28-16.56s13.09-.5,13.15-1.86-5.34-8.41-5.34-8.41S402.92,185.53,404,178.78Z" style="fill:#263238;stroke:#263238;stroke-linecap:round;stroke-linejoin:round"></path><path d="M379,183.08a21.5,21.5,0,0,0,3.16,1.41" style="fill:none;stroke:#6e6e6e;stroke-linecap:round;stroke-linejoin:round"></path><path d="M349.8,175.1s15.1,6.63,18.12,5.78S369,174,369,174a32.59,32.59,0,0,0,7.08,7.22" style="fill:none;stroke:#6e6e6e;stroke-linecap:round;stroke-linejoin:round"></path><path d="M359.91,203.5l-2,8.35s.79,6.57,1.43,10.68a12.92,12.92,0,0,1-.58,6.78l-10.87-.48,13.45,2.83,1.74-3.71-3.36-16.58Z" style="fill:#263238;stroke:#263238;stroke-linecap:round;stroke-linejoin:round"></path><path d="M343.31,233.8a8,8,0,0,0,5.33,2.69l9.78.43a6,6,0,0,0,4.46-2.25" style="fill:none;stroke:#263238;stroke-linecap:round;stroke-linejoin:round"></path><path d="M345.71,208.72c-.06,1.21-.61,2.17-1.24,2.14s-1.1-1-1-2.24.61-2.17,1.24-2.15S345.76,207.51,345.71,208.72Z" style="fill:#263238;stroke:#263238;stroke-linecap:round;stroke-linejoin:round"></path><path d="M365.3,209.59c-.05,1.21-.61,2.17-1.24,2.14s-1.09-1-1-2.24.61-2.17,1.24-2.14S365.35,208.38,365.3,209.59Z" style="fill:#263238;stroke:#263238;stroke-linecap:round;stroke-linejoin:round"></path><path d="M339.37,200.13a17.08,17.08,0,0,1,12.21.82" style="fill:none;stroke:#263238;stroke-linecap:round;stroke-linejoin:round;stroke-width:3px"></path><path d="M360.82,201.36s5.3-2.76,9.5.69" style="fill:none;stroke:#263238;stroke-linecap:round;stroke-linejoin:round;stroke-width:3px"></path><path d="M369.4,352.13a45.41,45.41,0,0,1-8.37-7.19,3.13,3.13,0,0,0-3.95-.65l-1.8,1a3.09,3.09,0,0,0-1.54,3c.18,2,.78,5,2.71,6.91a26.4,26.4,0,0,0,6.17,4.63l8.94-3.39Z" style="fill:#fff;stroke:#263238;stroke-linecap:round;stroke-linejoin:round"></path><path d="M330.22,352.13s5.71-3.73,8.89-7.84a2,2,0,0,1,2.59-.48l3.23,1.86a2,2,0,0,1,1,1.84c-.09,1.89-.57,5.5-2.77,7.7a26.4,26.4,0,0,1-6.17,4.63l-8.94-3.39Z" style="fill:#fff;stroke:#263238;stroke-linecap:round;stroke-linejoin:round"></path><path d="M410.58,403.71V356.45a3.19,3.19,0,0,0-3.19-3.19H294.71a3.19,3.19,0,0,0-3.2,3.19v47.26Z" style="fill:#737373;stroke:#263238;stroke-linecap:round;stroke-linejoin:round"></path><path d="M409,353.69a3.13,3.13,0,0,0-1.57-.43H294.71a3.17,3.17,0,0,0-2.55,1.28c7.63,6.42,47.64,39.61,60.95,40.12C366.88,395.2,400.38,362.35,409,353.69Z" style="fill:none;stroke:#263238;stroke-linecap:round;stroke-linejoin:round"></path><rect x="346.62" y="382.9" width="12.82" height="20.51" style="fill:#263238;stroke:#263238;stroke-linecap:round;stroke-linejoin:round"></rect><rect x="325.04" y="340.63" width="8.6" height="18.23" rx="2.29" style="fill:#fff;stroke:#263238;stroke-linecap:round;stroke-linejoin:round"></rect><path d="M326.37,358.69a2.19,2.19,0,0,0,.85.17h4.24a2.14,2.14,0,0,0,1-.24v-5.19h-6.06Z" style="fill:none;stroke:#263238;stroke-linecap:round;stroke-linejoin:round"></path><line x1="326.98" y1="346.62" x2="331.52" y2="346.62" style="fill:none;stroke:#263238;stroke-linecap:round;stroke-linejoin:round"></line><path d="M327.89,345a4.36,4.36,0,0,1,3.93.3" style="fill:none;stroke:#263238;stroke-linecap:round;stroke-linejoin:round"></path><rect x="306.58" y="340.63" width="8.6" height="18.23" rx="2.29" style="fill:#fff;stroke:#263238;stroke-linecap:round;stroke-linejoin:round"></rect><path d="M307.91,358.69a2.19,2.19,0,0,0,.85.17H313a2.07,2.07,0,0,0,1-.24v-5.19h-6Z" style="fill:none;stroke:#263238;stroke-linecap:round;stroke-linejoin:round"></path><line x1="308.52" y1="346.62" x2="313.06" y2="346.62" style="fill:none;stroke:#263238;stroke-linecap:round;stroke-linejoin:round"></line><path d="M309.42,345a4.38,4.38,0,0,1,3.94.3" style="fill:none;stroke:#263238;stroke-linecap:round;stroke-linejoin:round"></path><rect x="298.38" y="344.1" width="6.96" height="14.76" rx="2.29" style="fill:#fff;stroke:#263238;stroke-linecap:round;stroke-linejoin:round"></rect><path d="M299.46,358.72a1.72,1.72,0,0,0,.68.14h3.44a1.87,1.87,0,0,0,.78-.19v-4.21h-4.9Z" style="fill:none;stroke:#263238;stroke-linecap:round;stroke-linejoin:round"></path><line x1="299.95" y1="348.94" x2="303.62" y2="348.94" style="fill:none;stroke:#263238;stroke-linecap:round;stroke-linejoin:round"></line><path d="M300.68,347.6a3.54,3.54,0,0,1,3.19.24" style="fill:none;stroke:#263238;stroke-linecap:round;stroke-linejoin:round"></path><rect x="315.51" y="338.24" width="8.6" height="20.62" rx="2.29" style="fill:#fff;stroke:#263238;stroke-linecap:round;stroke-linejoin:round"></rect><path d="M316.84,358.69a2.14,2.14,0,0,0,.84.17h4.25a2.07,2.07,0,0,0,1-.24v-5.19h-6.05Z" style="fill:none;stroke:#263238;stroke-linecap:round;stroke-linejoin:round"></path><line x1="317.44" y1="346.62" x2="321.99" y2="346.62" style="fill:none;stroke:#263238;stroke-linecap:round;stroke-linejoin:round"></line><path d="M318.35,345a4.38,4.38,0,0,1,3.94.3" style="fill:none;stroke:#263238;stroke-linecap:round;stroke-linejoin:round"></path><rect x="367.39" y="340.63" width="8.6" height="18.23" rx="2.29" transform="translate(743.37 699.49) rotate(180)" style="fill:#fff;stroke:#263238;stroke-linecap:round;stroke-linejoin:round"></rect><path d="M374.65,358.69a2.19,2.19,0,0,1-.85.17h-4.24a2.07,2.07,0,0,1-1-.24v-5.19h6Z" style="fill:none;stroke:#263238;stroke-linecap:round;stroke-linejoin:round"></path><line x1="374.04" y1="346.62" x2="369.5" y2="346.62" style="fill:none;stroke:#263238;stroke-linecap:round;stroke-linejoin:round"></line><path d="M373.14,345a4.38,4.38,0,0,0-3.94.3" style="fill:none;stroke:#263238;stroke-linecap:round;stroke-linejoin:round"></path><rect x="385.85" y="340.63" width="8.6" height="18.23" rx="2.29" transform="translate(780.29 699.49) rotate(180)" style="fill:#fff;stroke:#263238;stroke-linecap:round;stroke-linejoin:round"></rect><path d="M393.11,358.69a2.14,2.14,0,0,1-.84.17H388a2.1,2.1,0,0,1-1-.24v-5.19h6.05Z" style="fill:none;stroke:#263238;stroke-linecap:round;stroke-linejoin:round"></path><line x1="392.51" y1="346.62" x2="387.97" y2="346.62" style="fill:none;stroke:#263238;stroke-linecap:round;stroke-linejoin:round"></line><path d="M391.6,345a4.38,4.38,0,0,0-3.94.3" style="fill:none;stroke:#263238;stroke-linecap:round;stroke-linejoin:round"></path><rect x="395.68" y="344.1" width="6.96" height="14.76" rx="2.29" transform="translate(798.33 702.95) rotate(180)" style="fill:#fff;stroke:#263238;stroke-linecap:round;stroke-linejoin:round"></rect><path d="M401.57,358.72a1.74,1.74,0,0,1-.69.14h-3.43a1.8,1.8,0,0,1-.78-.19v-4.21h4.9Z" style="fill:none;stroke:#263238;stroke-linecap:round;stroke-linejoin:round"></path><line x1="401.08" y1="348.94" x2="397.4" y2="348.94" style="fill:none;stroke:#263238;stroke-linecap:round;stroke-linejoin:round"></line><path d="M400.34,347.6a3.52,3.52,0,0,0-3.18.24" style="fill:none;stroke:#263238;stroke-linecap:round;stroke-linejoin:round"></path><rect x="376.92" y="338.24" width="8.6" height="20.62" rx="2.29" transform="translate(762.43 697.09) rotate(180)" style="fill:#fff;stroke:#263238;stroke-linecap:round;stroke-linejoin:round"></rect><path d="M384.18,358.69a2.14,2.14,0,0,1-.84.17H379.1a2.11,2.11,0,0,1-1-.24v-5.19h6.05Z" style="fill:none;stroke:#263238;stroke-linecap:round;stroke-linejoin:round"></path><line x1="383.58" y1="346.62" x2="379.04" y2="346.62" style="fill:none;stroke:#263238;stroke-linecap:round;stroke-linejoin:round"></line><path d="M382.67,345a4.36,4.36,0,0,0-3.93.3" style="fill:none;stroke:#263238;stroke-linecap:round;stroke-linejoin:round"></path></g><g id="freepik--Table--inject-68"><line x1="115.8" y1="403.71" x2="472.06" y2="403.71" style="fill:none;stroke:#263238;stroke-linecap:round;stroke-linejoin:round"></line><polygon points="220.78 375.37 227.06 406.82 206.09 406.82 220.78 375.37" style="fill:#263238;stroke:#263238;stroke-linecap:round;stroke-linejoin:round"></polygon><polygon points="213.63 409.33 100.18 409.33 107.33 375.37 220.78 375.37 213.63 409.33" style="fill:#5289F5;stroke:#263238;stroke-linecap:round;stroke-linejoin:round"></polygon></g><g id="freepik--Letter--inject-68"><path d="M120.39,150.66s-25.2,14.22-25.84,17.12.64,33.6-.33,35.86-14.53,22.61-14.53,33.27-.32,68.49-.32,68.49L61,338.67l44.58,16.15,22.29-33.92s14.86-13.24,18.09-16.47L140.74,149.7Z" style="fill:#fff;stroke:#263238;stroke-linecap:round;stroke-linejoin:round"></path><path d="M108.76,175.21s11.95,3.56,16.15,7.76" style="fill:none;stroke:#263238;stroke-linecap:round;stroke-linejoin:round"></path><path d="M112.31,196.53s3.56-1,10-.32" style="fill:none;stroke:#263238;stroke-linecap:round;stroke-linejoin:round"></path><path d="M111.63,100.55s31.3,213.38,31.77,221,.95,17.07.95,17.07,38.41-9.48,63.54-12.8,108.59-10.43,108.59-10.43-21.34-146.53-24.18-166-11.86-78.24-11.86-78.24-90.09,8.06-118.07,8.06a368.19,368.19,0,0,0-53.58,4.27Z" style="fill:#fff;stroke:#263238;stroke-linecap:round;stroke-linejoin:round"></path><path d="M147.44,99.65c2.21-.17,3.28.89,3.55,3l.15,1.16c.2,1.55-.22,2.56-1.37,3,1.33.28,1.95,1.3,2.15,2.81l.28,2.2a3.68,3.68,0,0,0,.5,1.67l-1.59.13a3.9,3.9,0,0,1-.48-1.7l-.29-2.22c-.2-1.6-1-2-2.32-1.94l-1.1.08.78,6-1.57.12L144.3,99.9Zm.46,6.7c1.24-.1,1.93-.56,1.74-2.09l-.18-1.36c-.16-1.27-.71-1.9-1.88-1.81l-1.52.12.67,5.23Z" style="fill:#263238"></path><path d="M158,105.16l.18,1.42-3.44.26.65,5,4.22-.33.19,1.44-5.79.44-1.83-14.13,5.79-.45.19,1.44-4.22.32.62,4.83Z" style="fill:#263238"></path><path d="M166.11,101.67l.17,1.27-1.49.11-.17-1.35c-.17-1.27-.77-2-1.92-1.91s-1.54.89-1.38,2.16l1,7.47c.17,1.28.79,2,1.92,1.92s1.54-.9,1.38-2.17l-.24-1.84,1.49-.11.23,1.76c.27,2.14-.55,3.63-2.72,3.79s-3.34-1.17-3.61-3.31l-.95-7.31c-.27-2.14.55-3.63,2.7-3.79S165.84,99.52,166.11,101.67Z" style="fill:#263238"></path><path d="M167.42,101.56c-.28-2.16.61-3.63,2.76-3.8s3.41,1.15,3.69,3.31l.95,7.31c.27,2.14-.61,3.64-2.78,3.8s-3.4-1.16-3.67-3.3Zm2.5,7.28c.17,1.29.81,2,1.93,1.91s1.58-.88,1.41-2.17l-1-7.47c-.17-1.27-.79-2-1.94-1.91s-1.57.89-1.4,2.16Z" style="fill:#263238"></path><path d="M181.93,111.26l-1.51.11-3.78-11.06,1.45,11.26-1.36.11L174.9,97.54l2.19-.16,3.77,11.11L181.64,97l2.19-.17L185.65,111l-1.49.12L182.7,99.74Z" style="fill:#263238"></path><path d="M192.45,110.45l-1.51.12L187.16,99.5l1.45,11.27-1.37.1-1.82-14.13,2.19-.17,3.77,11.11.77-11.46,2.19-.17,1.83,14.14-1.49.11-1.47-11.37Z" style="fill:#263238"></path><path d="M201.77,101.8l.18,1.42-3.44.26.65,5,4.22-.33.19,1.44-5.79.44L196,95.93l5.79-.45.19,1.44-4.22.32.62,4.83Z" style="fill:#263238"></path><path d="M206.4,109.4l-1.4.11-1.83-14.14,2-.15,4.58,10L208.42,95l1.38-.11L211.63,109l-1.63.12L204.93,98Z" style="fill:#263238"></path><path d="M214.71,94.49c2.19-.17,3.37,1.08,3.65,3.26l.92,7.13c.28,2.16-.55,3.57-2.74,3.74l-3.3.25-1.83-14.13Zm1.62,12.7c1.13-.09,1.58-.84,1.41-2.13l-.94-7.27c-.16-1.29-.8-2-1.94-1.87l-1.69.13,1.45,11.27Z" style="fill:#263238"></path><path d="M222.4,105.29l-.17,2.89-1.45.11L221.65,94l2.27-.17,4.52,13.93-1.57.12L226,105Zm0-1.36,3.13-.25-2.64-8Z" style="fill:#263238"></path><path d="M231.71,107.45l-1.63-12.7-2.6.2-.18-1.43,6.75-.52.19,1.43-2.6.2,1.64,12.7Z" style="fill:#263238"></path><path d="M236.71,92.79l1.82,14.14-1.57.12-1.82-14.13Z" style="fill:#263238"></path><path d="M238.64,96.09c-.28-2.16.6-3.63,2.75-3.8s3.42,1.15,3.7,3.31l.94,7.31c.28,2.14-.61,3.63-2.78,3.8s-3.39-1.17-3.67-3.31Zm2.5,7.28c.16,1.29.8,2,1.93,1.91s1.57-.88,1.4-2.17l-1-7.47c-.17-1.28-.79-2-1.93-1.91s-1.57.89-1.41,2.16Z" style="fill:#263238"></path><path d="M249.35,106.1l-1.41.11-1.82-14.14,2-.15,4.57,10-1.32-10.22,1.39-.11,1.82,14.14-1.62.12-5.08-11.15Z" style="fill:#263238"></path><path d="M181.91,131.94l-1.82-14.14,1.56-.12,1.64,12.71,4-.31.19,1.43Z" style="fill:#263238"></path><path d="M192.68,123.16l.18,1.41-3.44.27.65,5,4.22-.32.19,1.43-5.79.45-1.83-14.14,5.79-.44.19,1.43-4.22.33.62,4.82Z" style="fill:#263238"></path><path d="M198,130.71,196.34,118l-2.6.2-.18-1.43,6.75-.52.19,1.43-2.6.2,1.64,12.7Z" style="fill:#263238"></path><path d="M205.27,130.14l-1.64-12.7-2.59.2-.18-1.43,6.75-.52.18,1.43-2.59.2,1.64,12.7Z" style="fill:#263238"></path><path d="M214.51,121.48l.18,1.41-3.43.27.64,5,4.22-.33.19,1.44-5.79.44-1.82-14.13,5.78-.45.19,1.44-4.22.32.62,4.82Z" style="fill:#263238"></path><path d="M219.07,114.81c2.21-.17,3.28.89,3.55,3l.15,1.15c.2,1.55-.22,2.57-1.37,3,1.33.29,1.95,1.3,2.15,2.81l.28,2.2a3.76,3.76,0,0,0,.5,1.68l-1.59.12a3.9,3.9,0,0,1-.48-1.7l-.29-2.22c-.2-1.59-1-2-2.32-1.94l-1.1.09.78,6-1.57.12-1.83-14.13Zm.46,6.69c1.24-.09,1.94-.55,1.74-2.09l-.18-1.35c-.16-1.27-.71-1.9-1.88-1.81l-1.52.11.67,5.23Z" style="fill:#263238"></path><path d="M242.64,188.89,279.1,185c-1.59-6.24-2.69-10.66-2.69-11,0-.82-6.72-2.28-9.78-2.91-.6-1-1.8-2.8-2.31-3l-.14,0-.11-1.32a5,5,0,0,0,.72-1.75,14.66,14.66,0,0,0,.1-3.18c.28-.37,2.22-2.94,2.15-4.34a1.75,1.75,0,0,0-.82-1.47A1.42,1.42,0,0,0,265,156l-.38.19-.3-4.09a9.83,9.83,0,0,0,3.24-.92c.13-.1.12-.16.12-.2a8,8,0,0,0-1.59-1.9c.93-.16,4.07-.83,4.09-2.49a2.26,2.26,0,0,0-1.24-1.8c-1.22-.79-3.12-1.24-3.85-.91s-1.63.65-2.2.84c.44-.48,1.11-1.31,1-2a.8.8,0,0,0-.43-.59,4.5,4.5,0,0,0-4.63.86,12.09,12.09,0,0,0-1.5,1.67,4.74,4.74,0,0,0-3-.78c-1.38.09-2.41.65-2.46,1.1a.29.29,0,0,0,.23.32,1.55,1.55,0,0,1,.6.33c-.73.3-3.4,1.56-3.52,3.54a1.33,1.33,0,0,0,0,.2v.31c0,.05,0,.11,0,.18s0,0,0,.07l0,.26v.06l0,.23s0,.07,0,.1a1.55,1.55,0,0,0,0,.21v.11c0,.08,0,.16.05.24l0,.08.06.33,0,.09.06.26,0,.12c0,.08,0,.16.05.24l0,.11c0,.11,0,.22.08.32v0l.09.37,0,.1c0,.09.05.18.07.28l0,.11c0,.09,0,.19.08.29l0,.08c.07.25.14.51.21.75l0,.07.09.31,0,.07c0,.12.07.23.1.34v0c.07.25.15.5.22.73v0c0,.11.07.23.11.33h0l.4,1.27,0,0s0,0-.05,0l-.06-.09-.07-.07-.09-.11a.6.6,0,0,1-.08-.08l-.05-.05-.08-.07-.06-.05,0,0h0a1.41,1.41,0,0,0-.57-.29.9.9,0,0,0-.8.17,1.62,1.62,0,0,0-.58,1.35,4.63,4.63,0,0,0,1.25,3.13,5,5,0,0,0,2.08.87c0,.59.32,3.47,1.82,4.66l.27,2.25a29.41,29.41,0,0,0-2.2,2.63c-.25.36-.34.51-.34.77-3,1.32-8.82,4-8.67,4.78C243,177.9,242.88,182.46,242.64,188.89Z" style="fill:#263238"></path><path d="M284.71,178.38a8.59,8.59,0,1,0-8.72,8.46A8.59,8.59,0,0,0,284.71,178.38Z" style="fill:#5289F5;stroke:#263238;stroke-linecap:round;stroke-linejoin:round"></path><polyline points="272.61 176.68 276.58 181.29 284.38 167.26" style="fill:none;stroke:#263238;stroke-linecap:round;stroke-linejoin:round;stroke-width:3px"></polyline><line x1="156.02" y1="163.71" x2="231.05" y2="156.89" style="fill:none;stroke:#263238;stroke-linecap:round;stroke-linejoin:round"></line><line x1="157.38" y1="174.62" x2="232.41" y2="167.8" style="fill:none;stroke:#263238;stroke-linecap:round;stroke-linejoin:round"></line><line x1="193.49" y1="182.38" x2="233.77" y2="178.72" style="fill:none;stroke:#263238;stroke-linecap:round;stroke-linejoin:round"></line><line x1="158.74" y1="185.54" x2="186.11" y2="183.05" style="fill:none;stroke:#263238;stroke-linecap:round;stroke-linejoin:round"></line><line x1="160.11" y1="196.45" x2="235.14" y2="189.63" style="fill:none;stroke:#263238;stroke-linecap:round;stroke-linejoin:round"></line><line x1="210.46" y1="205.45" x2="282.88" y2="198.5" style="fill:none;stroke:#263238;stroke-linecap:round;stroke-linejoin:round"></line><line x1="162.15" y1="210.09" x2="204.99" y2="205.98" style="fill:none;stroke:#263238;stroke-linecap:round;stroke-linejoin:round"></line><line x1="255.67" y1="216.31" x2="284.93" y2="213.5" style="fill:none;stroke:#263238;stroke-linecap:round;stroke-linejoin:round"></line><line x1="164.2" y1="225.1" x2="247.37" y2="217.11" style="fill:none;stroke:#263238;stroke-linecap:round;stroke-linejoin:round"></line><line x1="265.09" y1="230.61" x2="286.98" y2="228.51" style="fill:none;stroke:#263238;stroke-linecap:round;stroke-linejoin:round"></line><line x1="201.52" y1="236.72" x2="257.66" y2="231.33" style="fill:none;stroke:#263238;stroke-linecap:round;stroke-linejoin:round"></line><line x1="166.25" y1="240.1" x2="196.31" y2="237.22" style="fill:none;stroke:#263238;stroke-linecap:round;stroke-linejoin:round"></line><line x1="265.17" y1="245.81" x2="289.02" y2="243.52" style="fill:none;stroke:#263238;stroke-linecap:round;stroke-linejoin:round"></line><line x1="168.29" y1="255.11" x2="250.85" y2="247.18" style="fill:none;stroke:#263238;stroke-linecap:round;stroke-linejoin:round"></line><line x1="202.36" y1="267.04" x2="291.07" y2="258.52" style="fill:none;stroke:#263238;stroke-linecap:round;stroke-linejoin:round"></line><line x1="170.34" y1="270.12" x2="190.88" y2="268.14" style="fill:none;stroke:#263238;stroke-linecap:round;stroke-linejoin:round"></line><line x1="237.92" y1="278.83" x2="293.12" y2="273.53" style="fill:none;stroke:#263238;stroke-linecap:round;stroke-linejoin:round"></line><line x1="172.39" y1="285.12" x2="230.35" y2="279.56" style="fill:none;stroke:#263238;stroke-linecap:round;stroke-linejoin:round"></line><line x1="285.7" y1="289.44" x2="295.16" y2="288.53" style="fill:none;stroke:#263238;stroke-linecap:round;stroke-linejoin:round"></line><line x1="231.05" y1="294.69" x2="277.4" y2="290.24" style="fill:none;stroke:#263238;stroke-linecap:round;stroke-linejoin:round"></line><line x1="174.43" y1="300.13" x2="222.94" y2="295.47" style="fill:none;stroke:#263238;stroke-linecap:round;stroke-linejoin:round"></line><path d="M114.25,230.78s5.49-18.09,8.08-26.17,4.2-14.54,6.14-21.32,1-21.64,1-24.55,17.45-1.94,19.71-1.62,8.4,38.45,6.46,46.2-9,14.21-9,18.73-.33,13.25-.33,15.19,4.85,21,5.17,29.39-4.52,21-5.49,22.29-23.58,28.43-23.58,28.43" style="fill:#fff;stroke:#263238;stroke-linecap:round;stroke-linejoin:round"></path><path d="M131.37,178.77s7.43-3.23,13.57-.65c0,0,.65-15.18-2.91-19.38" style="fill:none;stroke:#263238;stroke-linecap:round;stroke-linejoin:round"></path><path d="M127.82,192.34a18.38,18.38,0,0,0,11-1.3" style="fill:none;stroke:#263238;stroke-linecap:round;stroke-linejoin:round"></path><path d="M128.79,189.1s6.78-3.87,14.21-1" style="fill:none;stroke:#263238;stroke-linecap:round;stroke-linejoin:round"></path><path d="M141.39,185.55a11.68,11.68,0,0,0-9.69.32" style="fill:none;stroke:#263238;stroke-linecap:round;stroke-linejoin:round"></path><path d="M65.63,323.89s20.39-2.37,37,8.54S124,357.08,124,357.08l-13.75,28.46S86.5,362.3,70.38,356.61s-18.5-6.16-18.5-6.16Z" style="fill:#fff;stroke:#263238;stroke-linecap:round;stroke-linejoin:round"></path><path d="M36,363.43c12.88,29.77,35.17,55.8,68.28,76.11l19.1-56.22s-13.28-25.6-28.93-34.14-42.2-11.85-42.2-11.85Z" style="fill:#263238;stroke:#263238;stroke-linecap:round;stroke-linejoin:round"></path><line x1="150.56" y1="143.25" x2="274.7" y2="133.7" style="fill:none;stroke:#5289F5;stroke-linecap:round;stroke-linejoin:round"></line></g></svg>